PathFileType	3	(X/Y/Z)	D:\Jess\PFP\Labelled\PA11\20250805\SRRun01.trc
DataRate	CameraRate	NumFrames	NumMarkers	Units	OrigDataRate	OrigDataStartFrame	OrigNumFrames
250.0	250.0	4	33	mm	250.0	36563	2501
Frame#	Time	C7			T10			CLAV			LSHO			RSHO			LASIS			RASIS			LPSIS			RPSIS			LILCR			RILCR			LGTR			LTHI			LLTHI			LLEP			LPSH			LLSH			LDSH			LLMAL			LTOE			L5TH			LHEE			RGTR			RTHI			RLTHI			RLEP			RPSH			RLSH			RDSH			RLMAL			RTOE			R5TH			RHEE			
		X1	Y1	Z1	X2	Y2	Z2	X3	Y3	Z3	X4	Y4	Z4	X5	Y5	Z5	X6	Y6	Z6	X7	Y7	Z7	X8	Y8	Z8	X9	Y9	Z9	X10	Y10	Z10	X11	Y11	Z11	X12	Y12	Z12	X13	Y13	Z13	X14	Y14	Z14	X15	Y15	Z15	X16	Y16	Z16	X17	Y17	Z17	X18	Y18	Z18	X19	Y19	Z19	X20	Y20	Z20	X21	Y21	Z21	X22	Y22	Z22	X23	Y23	Z23	X24	Y24	Z24	X25	Y25	Z25	X26	Y26	Z26	X27	Y27	Z27	X28	Y28	Z28	X29	Y29	Z29	X30	Y30	Z30	X31	Y31	Z31	X32	Y32	Z32	X33	Y33	Z33	

1564	146.248	996.7068062513144	1553.411524875	-360.6189928113069	919.9784247393451	1339.135988903949	-377.0317518545815	1122.259099555389	1454.397801540165	-315.5448089196852	1108.168644243227	1538.89818482635	-461.4711646304239	1031.239179647471	1535.807888238502	-192.6102625094685	1120.171459299726	1077.711439328805	-439.6347839553213	1084.799658275718	1100.911153740901	-202.2513402444156	912.0669291799514	1134.744751221496	-363.5206714841784	911.7392444929716	1133.792956683666	-331.3547797664498	1074.804183565331	1148.044534836788	-491.0133456802599	998.930099893557	1179.146214346088	-169.3660895068873	1026.473203472806	973.156936155297	-540.9020156712094	1057.448130234092	764.198350662848	-428.5666219214447	908.237644037615	696.1607852211951	-496.1450582569577	845.7660183799135	581.8209765991575	-479.376085864335	866.6752586429366	480.5099787110839	-419.9016856136204	713.4969190436392	405.026751690061	-480.1228859609629	699.8519819859372	269.2367249474951	-414.2983391671214	591.2272248875046	231.1462409660375	-445.8195946978787	640.7311111263724	73.89974087699102	-415.3929586974547	593.8633208537597	80.51961921872662	-455.9613805976994	538.6043549644596	276.2506939106394	-394.6230201356417	1005.76861173053	1026.295975334311	-117.322907616128	1186.103156788584	850.6827027144509	-233.9848039010647	1114.135175590654	711.9561200699612	-167.4983513603908	1180.028554146704	571.6318414140095	-186.9284907265762	1238.854342427223	507.3356328127763	-254.4790414426172	1186.481850722086	351.7878278355396	-188.3800997987224	1257.112138132519	259.3000091089286	-251.4120052677992	1220.294365427363	135.9938082122814	-227.3261349399572	1374.011680605432	146.3715888249856	-233.2035974251563	1350.905165058164	98.78114343110666	-201.7872687277782	1164.60822599006	80.36811698075709	-284.2099550289875	
1565	146.252	996.9255044933628	1553.023549062057	-359.7726920952955	919.8786289352731	1339.030969760289	-375.9853853053399	1122.298780425809	1453.953935280363	-314.7513701191788	1108.492043857659	1538.158604516491	-460.5047152155867	1031.527643718152	1535.233054845711	-191.770688905108	1120.620541665678	1077.967473792875	-439.3117206812587	1085.349507170055	1100.357310483123	-202.1385125587633	912.5953120137734	1135.298604141334	-362.34746994189	912.0757348257171	1134.151417250936	-330.4212537330649	1074.379634912752	1148.652320709283	-490.6294928597545	999.6364379825684	1178.612881150406	-168.5155224817951	1027.121381893117	974.0546176883031	-540.618377654689	1059.479439903058	764.1497156660595	-429.3665295955036	910.7901284531058	695.160097557338	-495.9152444890634	848.8761507581643	580.5276457656477	-478.9357146175194	868.617399722056	478.5236645130075	-420.1976810549139	714.2134776281821	405.8084421679867	-480.9993084535632	697.9431117885541	270.140738422322	-415.7152930262249	589.0406006841637	234.2548559460072	-448.1576223735431	633.9733655601603	75.84148309330998	-416.6330757040346	587.0733270368725	83.42404093478893	-456.9996519509866	537.9457898886106	281.2686448658781	-397.1743686060844	1006.794705724238	1026.307025110538	-116.708906416828	1184.938215736393	847.9280965741311	-233.902972301976	1112.630023950173	710.7535994403717	-166.8244440440655	1178.688790674753	570.1755213870092	-186.621404469129	1237.693522486285	506.268732555671	-254.5937610957602	1186.265866241959	350.4334562826658	-189.0529125390334	1257.317270545682	258.5529212951597	-252.4455169535504	1221.500370834169	134.833689091391	-228.6645828914673	1375.137280251087	146.8680304395839	-235.0142381882052	1352.599067416973	98.84169166046972	-203.6722965157643	1166.223579585827	78.6940989465286	-285.5261024829638	
1566	146.256	997.1370938691463	1552.502110726288	-358.8951943062486	919.7375185490932	1338.784831247197	-374.8965947409216	1122.321785640379	1453.358098382698	-313.9616243033866	1108.810384526006	1537.25593681873	-459.5910027682112	1031.766935771749	1534.480296641251	-190.8881544626929	1121.010144551809	1078.086416443579	-439.0333315203605	1085.880355225644	1099.620936415406	-201.9782903802384	913.0598769607078	1135.638344000465	-361.1812100042631	912.3365890975688	1134.292269452019	-329.4908183948714	1073.847511199688	1149.107786616407	-490.2927207250376	1000.302906856954	1177.891120544948	-167.6881773423669	1027.774316248216	974.8037479831376	-540.3337237389188	1061.590272712743	763.9624750364193	-430.0753228729122	913.5699387427716	693.836051425658	-495.6248320415491	852.3091022952038	578.9145284715339	-478.4981095945471	870.798488983349	476.2847347980769	-420.4679885572189	715.1934422012785	406.4286189009295	-481.8947674775273	696.2050271557792	270.9839335506402	-417.1254721448352	587.01649414349	237.3390974567349	-450.4781553832693	627.4464033539138	77.91167668124835	-417.91943990295	580.5462439372503	86.45242167230336	-458.1034094266324	537.4475129249876	286.1680018915154	-399.6935390065163	1007.771267767622	1026.053688585496	-116.0814582409968	1183.806712349238	844.9352319361544	-233.8035212740554	1111.367226550284	709.4039829088268	-166.1982024511169	1177.455854670001	568.6191759356351	-186.3921422469213	1236.464258013381	505.0498504794958	-254.7137831350533	1185.668178876638	348.9645922379337	-189.755802784203	1257.007896501249	257.5615340597494	-253.4626147171575	1221.913934978731	133.5595108842845	-230.0166788242589	1375.464530359158	146.8504688031462	-236.6944722571865	1353.335394628441	98.4832250474868	-205.438501440474	1166.972884675062	77.09892615403869	-286.9263015777033	
1567	146.26	997.3369006771941	1551.842127040529	-357.9888666076143	919.5598163602965	1338.391732411621	-373.7756816140479	1122.326776193031	1452.609610672034	-313.1792943523326	1109.115098675135	1536.192600908088	-458.7299070727064	1031.956993775689	1533.546474556302	-189.9673340746345	1121.342124585218	1078.071637351356	-438.7991130556404	1086.392027040461	1098.713152142195	-201.7701065612885	913.4672469325326	1135.75653876461	-360.0311104356178	912.5346869364422	1134.210693361223	-328.5665015206935	1073.218710644828	1149.400894281936	-489.9954257888884	1000.925547131047	1176.987181584153	-166.8961550333858	1028.432196961536	975.39144347937	-540.0465502160635	1063.770959880646	763.6291668001248	-430.6846925967686	916.5516932627521	692.2002864097921	-495.2839319740798	856.0427205975044	577.0018332147853	-478.0790030643342	873.2078980645575	473.8221922974037	-420.7241220295463	716.429678955058	406.9074741915126	-482.8142423896883	694.6496130050455	271.7872288812483	-418.5340177119008	585.1629764854889	240.4095864758906	-452.7695883323701	621.193158839708	80.11075535894415	-419.2558233334978	574.3238073020128	89.60179989731429	-459.2760912929039	537.1029359938772	290.9485565563217	-402.1645020041765	1008.692039727812	1025.525727620047	-115.4524975700094	1182.737953836351	841.7343612092867	-233.685174116139	1110.350090040959	707.8977364471289	-165.6250287178741	1176.31514545865	566.9466605498677	-186.2460116402199	1235.162584574636	503.6627049858081	-254.8377671016455	1184.69044256654	347.3600789533224	-190.486833704876	1256.200881933349	256.307901339058	-254.4602404688904	1221.554561319781	132.1576763314801	-231.3743051186725	1375.020678287999	146.2899561052189	-238.2468733420114	1353.136482586405	97.68220382662859	-207.0800483910137	1166.865575879843	75.58261737205092	-288.3961806835675	
